<mxfile host="app.diagrams.net" modified="2021-05-26T03:06:44.926Z" agent="5.0 (Windows NT 10.0; Win64; x64) AppleWebKit/537.36 (KHTML, like Gecko) Chrome/90.0.4430.212 Safari/537.36" etag="Ts8_Sf0usWzCV0XAekc6" version="14.7.0" type="github">
  <diagram id="DPkHYP2_6Zv_BoQQO5gS" name="Page-1">
    <mxGraphModel dx="1422" dy="882" grid="1" gridSize="10" guides="1" tooltips="1" connect="1" arrows="1" fold="1" page="1" pageScale="1" pageWidth="827" pageHeight="1169" math="0" shadow="0">
      <root>
        <mxCell id="0" />
        <mxCell id="1" parent="0" />
        <mxCell id="nAqRNeUWXOQjpgPWceuK-2" style="edgeStyle=orthogonalEdgeStyle;rounded=0;orthogonalLoop=1;jettySize=auto;html=1;exitX=0.5;exitY=1;exitDx=0;exitDy=0;exitPerimeter=0;" parent="1" source="nAqRNeUWXOQjpgPWceuK-1" target="nAqRNeUWXOQjpgPWceuK-5" edge="1">
          <mxGeometry relative="1" as="geometry">
            <mxPoint x="266.25" y="120" as="targetPoint" />
          </mxGeometry>
        </mxCell>
        <mxCell id="nAqRNeUWXOQjpgPWceuK-1" value="Start" style="strokeWidth=2;html=1;shape=mxgraph.flowchart.start_2;whiteSpace=wrap;fillColor=#ffe6cc;strokeColor=#d79b00;" parent="1" vertex="1">
          <mxGeometry x="76.25" y="40" width="50" height="50" as="geometry" />
        </mxCell>
        <mxCell id="m7uGYO3cP5e8wy7FhjBA-26" value="" style="edgeStyle=orthogonalEdgeStyle;rounded=0;orthogonalLoop=1;jettySize=auto;html=1;" edge="1" parent="1" source="nAqRNeUWXOQjpgPWceuK-4" target="m7uGYO3cP5e8wy7FhjBA-24">
          <mxGeometry relative="1" as="geometry" />
        </mxCell>
        <mxCell id="m7uGYO3cP5e8wy7FhjBA-27" value="&lt;font style=&quot;font-size: 12px&quot;&gt;Yes&lt;/font&gt;" style="edgeLabel;html=1;align=center;verticalAlign=middle;resizable=0;points=[];" vertex="1" connectable="0" parent="m7uGYO3cP5e8wy7FhjBA-26">
          <mxGeometry x="-0.3279" y="2" relative="1" as="geometry">
            <mxPoint x="13" y="3" as="offset" />
          </mxGeometry>
        </mxCell>
        <mxCell id="m7uGYO3cP5e8wy7FhjBA-28" value="" style="edgeStyle=orthogonalEdgeStyle;rounded=0;orthogonalLoop=1;jettySize=auto;html=1;" edge="1" parent="1" source="nAqRNeUWXOQjpgPWceuK-4" target="nAqRNeUWXOQjpgPWceuK-7">
          <mxGeometry relative="1" as="geometry" />
        </mxCell>
        <mxCell id="m7uGYO3cP5e8wy7FhjBA-33" value="No" style="edgeLabel;html=1;align=center;verticalAlign=middle;resizable=0;points=[];fontSize=12;" vertex="1" connectable="0" parent="m7uGYO3cP5e8wy7FhjBA-28">
          <mxGeometry x="-0.2657" y="-3" relative="1" as="geometry">
            <mxPoint y="-18" as="offset" />
          </mxGeometry>
        </mxCell>
        <mxCell id="nAqRNeUWXOQjpgPWceuK-4" value="With Items" style="strokeWidth=2;html=1;shape=mxgraph.flowchart.decision;whiteSpace=wrap;fillColor=#dae8fc;strokeColor=#6c8ebf;" parent="1" vertex="1">
          <mxGeometry x="40" y="320" width="122.5" height="70" as="geometry" />
        </mxCell>
        <mxCell id="nAqRNeUWXOQjpgPWceuK-6" style="edgeStyle=orthogonalEdgeStyle;rounded=0;orthogonalLoop=1;jettySize=auto;html=1;exitX=0.5;exitY=1;exitDx=0;exitDy=0;entryX=0.5;entryY=0;entryDx=0;entryDy=0;" parent="1" source="nAqRNeUWXOQjpgPWceuK-5" target="m7uGYO3cP5e8wy7FhjBA-1" edge="1">
          <mxGeometry relative="1" as="geometry" />
        </mxCell>
        <mxCell id="nAqRNeUWXOQjpgPWceuK-5" value="Create QD Contract" style="rounded=1;whiteSpace=wrap;html=1;absoluteArcSize=1;arcSize=14;strokeWidth=2;fillColor=#d5e8d4;strokeColor=#82b366;" parent="1" vertex="1">
          <mxGeometry x="51.25" y="120" width="100" height="50" as="geometry" />
        </mxCell>
        <mxCell id="m7uGYO3cP5e8wy7FhjBA-30" value="" style="edgeStyle=orthogonalEdgeStyle;rounded=0;orthogonalLoop=1;jettySize=auto;html=1;" edge="1" parent="1" source="m7uGYO3cP5e8wy7FhjBA-29" target="nAqRNeUWXOQjpgPWceuK-7">
          <mxGeometry relative="1" as="geometry" />
        </mxCell>
        <mxCell id="m7uGYO3cP5e8wy7FhjBA-31" value="Vendor ID" style="edgeLabel;html=1;align=center;verticalAlign=middle;resizable=0;points=[];" vertex="1" connectable="0" parent="m7uGYO3cP5e8wy7FhjBA-30">
          <mxGeometry x="-0.22" y="-1" relative="1" as="geometry">
            <mxPoint x="-29" y="-10" as="offset" />
          </mxGeometry>
        </mxCell>
        <mxCell id="m7uGYO3cP5e8wy7FhjBA-32" value="Delivery Type" style="edgeLabel;html=1;align=center;verticalAlign=middle;resizable=0;points=[];" vertex="1" connectable="0" parent="m7uGYO3cP5e8wy7FhjBA-30">
          <mxGeometry x="0.22" y="2" relative="1" as="geometry">
            <mxPoint x="9" y="9" as="offset" />
          </mxGeometry>
        </mxCell>
        <mxCell id="m7uGYO3cP5e8wy7FhjBA-35" value="" style="edgeStyle=orthogonalEdgeStyle;rounded=0;orthogonalLoop=1;jettySize=auto;html=1;fontSize=12;" edge="1" parent="1" source="nAqRNeUWXOQjpgPWceuK-7" target="m7uGYO3cP5e8wy7FhjBA-34">
          <mxGeometry relative="1" as="geometry" />
        </mxCell>
        <mxCell id="nAqRNeUWXOQjpgPWceuK-7" value="Search Produts" style="whiteSpace=wrap;html=1;strokeColor=#6c8ebf;strokeWidth=2;fillColor=#dae8fc;" parent="1" vertex="1">
          <mxGeometry x="246.25" y="325" width="120" height="60" as="geometry" />
        </mxCell>
        <mxCell id="nAqRNeUWXOQjpgPWceuK-30" value="" style="edgeStyle=orthogonalEdgeStyle;rounded=0;orthogonalLoop=1;jettySize=auto;html=1;fontSize=12;exitX=0.5;exitY=1;exitDx=0;exitDy=0;" parent="1" source="m7uGYO3cP5e8wy7FhjBA-24" edge="1">
          <mxGeometry relative="1" as="geometry">
            <mxPoint x="101.25" y="650" as="sourcePoint" />
            <mxPoint x="101.25" y="640" as="targetPoint" />
          </mxGeometry>
        </mxCell>
        <mxCell id="m7uGYO3cP5e8wy7FhjBA-22" value="" style="edgeStyle=orthogonalEdgeStyle;rounded=0;orthogonalLoop=1;jettySize=auto;html=1;" edge="1" parent="1" source="m7uGYO3cP5e8wy7FhjBA-1" target="nAqRNeUWXOQjpgPWceuK-4">
          <mxGeometry relative="1" as="geometry" />
        </mxCell>
        <mxCell id="m7uGYO3cP5e8wy7FhjBA-23" value="Click Next Button" style="edgeLabel;html=1;align=center;verticalAlign=middle;resizable=0;points=[];" vertex="1" connectable="0" parent="m7uGYO3cP5e8wy7FhjBA-22">
          <mxGeometry x="-0.3629" y="1" relative="1" as="geometry">
            <mxPoint x="49" y="9" as="offset" />
          </mxGeometry>
        </mxCell>
        <mxCell id="m7uGYO3cP5e8wy7FhjBA-1" value="Item Selection" style="rounded=1;whiteSpace=wrap;html=1;absoluteArcSize=1;arcSize=14;strokeWidth=2;fillColor=#d5e8d4;strokeColor=#82b366;" vertex="1" parent="1">
          <mxGeometry x="51.25" y="210" width="100" height="50" as="geometry" />
        </mxCell>
        <mxCell id="m7uGYO3cP5e8wy7FhjBA-24" value="Location Selection" style="rounded=1;whiteSpace=wrap;html=1;absoluteArcSize=1;arcSize=14;strokeWidth=2;fillColor=#d5e8d4;strokeColor=#82b366;" vertex="1" parent="1">
          <mxGeometry x="51.25" y="535" width="100" height="50" as="geometry" />
        </mxCell>
        <mxCell id="m7uGYO3cP5e8wy7FhjBA-29" value="Product" style="strokeWidth=2;html=1;shape=mxgraph.flowchart.database;whiteSpace=wrap;fillColor=#e1d5e7;strokeColor=#9673a6;" vertex="1" parent="1">
          <mxGeometry x="496.25" y="325" width="60" height="60" as="geometry" />
        </mxCell>
        <mxCell id="m7uGYO3cP5e8wy7FhjBA-36" style="edgeStyle=orthogonalEdgeStyle;rounded=0;orthogonalLoop=1;jettySize=auto;html=1;entryX=1;entryY=0.5;entryDx=0;entryDy=0;fontSize=12;exitX=0.5;exitY=1;exitDx=0;exitDy=0;" edge="1" parent="1" source="m7uGYO3cP5e8wy7FhjBA-34" target="m7uGYO3cP5e8wy7FhjBA-24">
          <mxGeometry relative="1" as="geometry" />
        </mxCell>
        <mxCell id="m7uGYO3cP5e8wy7FhjBA-34" value="Build Contract Location Structure" style="whiteSpace=wrap;html=1;strokeColor=#6c8ebf;strokeWidth=2;fillColor=#dae8fc;" vertex="1" parent="1">
          <mxGeometry x="246.25" y="450" width="120" height="60" as="geometry" />
        </mxCell>
        <mxCell id="m7uGYO3cP5e8wy7FhjBA-40" value="" style="strokeWidth=2;html=1;shape=mxgraph.flowchart.start_2;whiteSpace=wrap;fontSize=12;fillColor=#f5f5f5;strokeColor=#666666;fontColor=#333333;" vertex="1" parent="1">
          <mxGeometry x="86.25" y="640" width="30" height="30" as="geometry" />
        </mxCell>
      </root>
    </mxGraphModel>
  </diagram>
</mxfile>
